<?xml version="1.0" encoding="UTF-8" standalone="no"?>
<!-- Created with Inkscape (http://www.inkscape.org/) -->

<svg
   xmlns:dc="http://purl.org/dc/elements/1.1/"
   xmlns:cc="http://creativecommons.org/ns#"
   xmlns:rdf="http://www.w3.org/1999/02/22-rdf-syntax-ns#"
   xmlns:svg="http://www.w3.org/2000/svg"
   xmlns="http://www.w3.org/2000/svg"
   xmlns:sodipodi="http://sodipodi.sourceforge.net/DTD/sodipodi-0.dtd"
   xmlns:inkscape="http://www.inkscape.org/namespaces/inkscape"
   width="159.85004"
   height="159.77499"
   id="svg2"
   version="1.1"
   inkscape:version="0.91 r13725"
   sodipodi:docname="decline-logo-small.svg"
   inkscape:export-filename="/home/bkirwi/Code/decline/doc/src/main/resources/microsite/img/navbar_brand2x.png"
   inkscape:export-xdpi="49.56971"
   inkscape:export-ydpi="49.56971">
  <defs
     id="defs4">
    <inkscape:path-effect
       effect="bend_path"
       id="path-effect4214"
       is_visible="true"
       bendpath="m -1159.0424,-353.06488 135.9398,0"
       prop_scale="1"
       scale_y_rel="false"
       vertical="false" />
  </defs>
  <sodipodi:namedview
     id="base"
     pagecolor="#ffffff"
     bordercolor="#666666"
     borderopacity="1.0"
     inkscape:pageopacity="0.0"
     inkscape:pageshadow="2"
     inkscape:zoom="2.8"
     inkscape:cx="93.718075"
     inkscape:cy="59.33016"
     inkscape:document-units="px"
     inkscape:current-layer="layer1"
     showgrid="false"
     fit-margin-top="0.2"
     fit-margin-right="0.2"
     fit-margin-bottom="0.2"
     fit-margin-left="0.2"
     inkscape:window-width="1916"
     inkscape:window-height="1041"
     inkscape:window-x="0"
     inkscape:window-y="18"
     inkscape:window-maximized="0" />
  <metadata
     id="metadata7">
    <rdf:RDF>
      <cc:Work
         rdf:about="">
        <dc:format>image/svg+xml</dc:format>
        <dc:type
           rdf:resource="http://purl.org/dc/dcmitype/StillImage" />
        <dc:title></dc:title>
      </cc:Work>
    </rdf:RDF>
  </metadata>
  <g
     inkscape:label="Layer 1"
     inkscape:groupmode="layer"
     id="layer1"
     transform="translate(1019.7555,432.95819)">
    <path
       sodipodi:type="inkscape:offset"
       inkscape:radius="4.3501148"
       inkscape:original="M -1090.8477 -441.08789 A 9.5429931 9.5429931 0 0 0 -1095.8438 -439.8125 L -1163.8145 -400.57031 A 9.5429931 9.5429931 0 0 0 -1168.5859 -392.30664 L -1168.5859 -313.82227 A 9.5429931 9.5429931 0 0 0 -1163.8145 -305.55859 L -1095.8438 -266.31641 A 9.5429931 9.5429931 0 0 0 -1086.3008 -266.31641 L -1018.332 -305.55859 A 9.5429931 9.5429931 0 0 0 -1013.5605 -313.82227 L -1013.5605 -392.30664 A 9.5429931 9.5429931 0 0 0 -1018.332 -400.57031 L -1086.3008 -439.8125 A 9.5429931 9.5429931 0 0 0 -1090.8477 -441.08789 z "
       style="fill:#ffd520;fill-opacity:1;fill-rule:evenodd;stroke:#000000;stroke-width:0;stroke-linecap:butt;stroke-linejoin:miter;stroke-miterlimit:4.9000001;stroke-dasharray:none;stroke-opacity:1"
       id="path4399"
       d="m -1090.7461,-445.4375 c -2.5324,-0.0595 -5.0776,0.59109 -7.2715,1.85742 a 4.3505498,4.3505498 0 0 0 -0,0 l -67.9707,39.24219 c -4.1995,2.42464 -6.945,7.18206 -6.9453,12.03125 l 0,78.48437 c 3e-4,4.8492 2.7458,9.60661 6.9453,12.03125 l 67.9707,39.24219 c 4.1999,2.42481 9.6946,2.42481 13.8945,0 l 67.9688,-39.24219 c 4.1995,-2.42461 6.9449,-7.18202 6.9453,-12.03125 l 0,-78.48437 c -4e-4,-4.84922 -2.7458,-9.60664 -6.9453,-12.03125 l -67.9688,-39.24219 a 4.3505498,4.3505498 0 0 0 -0,0 c -2.005,-1.15733 -4.3027,-1.80282 -6.6171,-1.85742 l -0,0 z"
       transform="matrix(0.83262823,0,0,0.83262823,-31.88047,-58.614056)" />
    <path
       sodipodi:type="inkscape:offset"
       inkscape:radius="-4.109869"
       inkscape:original="M -1090.8477 -441.08789 A 9.5429931 9.5429931 0 0 0 -1095.8438 -439.8125 L -1163.8145 -400.57031 A 9.5429931 9.5429931 0 0 0 -1168.5859 -392.30664 L -1168.5859 -313.82227 A 9.5429931 9.5429931 0 0 0 -1163.8145 -305.55859 L -1095.8438 -266.31641 A 9.5429931 9.5429931 0 0 0 -1086.3008 -266.31641 L -1018.332 -305.55859 A 9.5429931 9.5429931 0 0 0 -1013.5605 -313.82227 L -1013.5605 -392.30664 A 9.5429931 9.5429931 0 0 0 -1018.332 -400.57031 L -1086.3008 -439.8125 A 9.5429931 9.5429931 0 0 0 -1090.8477 -441.08789 z "
       style="fill:#ffd520;fill-opacity:1;fill-rule:evenodd;stroke:#000000;stroke-width:4.80406475;stroke-linecap:butt;stroke-linejoin:miter;stroke-miterlimit:4.9000001;stroke-dasharray:none;stroke-opacity:1"
       id="path4423"
       d="m -1090.9453,-436.97852 c -0.9906,-0.0234 -1.9856,0.22927 -2.8438,0.72461 l -67.9707,39.24219 c -1.6422,0.9482 -2.7166,2.80872 -2.7168,4.70508 l 0,78.48437 c 2e-4,1.89636 1.0746,3.75688 2.7168,4.70508 l 67.9707,39.24219 c 1.6425,0.94826 3.7912,0.94826 5.4336,0 l 67.9688,-39.24219 c 1.6423,-0.94818 2.7166,-2.80871 2.7168,-4.70508 l 0,-78.48437 c -2e-4,-1.89637 -1.0745,-3.7569 -2.7168,-4.70508 l -67.9688,-39.24219 c -0.7843,-0.45272 -1.6825,-0.70338 -2.5879,-0.72461 a 4.11028,4.11028 0 0 1 -0,0 z"
       transform="matrix(0.83262823,0,0,0.83262823,-31.691355,-58.534697)" />
    <g
       id="g4376"
       transform="matrix(1.5036958,0.15122644,-0.15122644,1.5036958,662.05491,356.96805)">
      <path
         id="path6720"
         style="fill:#000000;fill-opacity:1;fill-rule:evenodd;stroke:none"
         d="m -1131.3411,-359.41469 -1.2,-0.825 -0.975,-0.6 -0.975,-0.75 -0.975,-0.975 -0.825,-1.05 -0.6,-0.975 -0.75,-1.2 -0.45,-1.125 -0.375,-1.2 -0.225,-1.2 -0.15,-1.2 0,-2.775 0.15,-1.2 0.45,-1.35 1.2,-2.4 0.75,-1.2 0.825,-0.975 0.975,-0.825 0.975,-0.975 0.975,-0.6 2.4,-1.2 1.2,-0.375 1.2,-0.225 1.2,-0.15 1.35,0 1.2,0.15 1.425,0.225 1.125,0.375 1.425,0.6 1.2,0.6 0.975,0.6 0.975,0.975 1.05,0.825 6.15,-4.35 0,-1.425 -0.6,-0.375 -0.45,-0.6 -0.6,-0.6 -0.15,-0.6 -0.225,-0.6 -0.225,-0.825 0,-0.525 0.225,-0.825 9.15,4.35 0.375,0.225 0,0.375 -0.375,0.375 -4.8,0 0,2.025 20.475,9.525 0.15,-0.825 0.45,-0.6 0.375,-0.75 0.6,-0.45 0.6,-0.6 0.75,-0.375 0.825,-0.225 0.825,0 0.15,-0.15 0,-0.6 -0.15,-0.225 -4.575,-1.575 0.15,-2.175 5.4,1.8 0.6,0.375 0.6,0.6 0.15,0.825 0.225,0.975 -0.225,0.75 -0.375,0.825 -0.825,0.375 -0.975,0.45 -0.975,0.15 -0.975,0.6 -0.45,0.825 -0.375,0.975 -0.375,6.525 1.2,0.225 0.975,0.375 1.2,0.375 0.975,0.6 1.2,0.6 0.825,0.825 0.975,0.75 0.75,1.05 1.05,1.35 0.75,1.8 0.6,1.575 0.225,1.8 0.15,1.8 -0.15,1.725 -0.45,2.025 -0.6,1.8 -0.525,1.2 -1.65,1.95 -0.975,0.975 -0.975,0.825 -0.975,0.75 -1.2,0.6 -1.2,0.45 -1.2,0.375 -1.2,0.225 -1.35,0.15 -2.625,0 -1.2,-0.375 -1.35,-0.225 -2.4,-1.2 -1.2,-0.75 -0.975,-0.825 -0.75,-0.975 -1.65,-1.95 -0.6,-1.2 -1.125,-3.6 0,-3.75 0.15,-1.425 0.375,-1.2 0.6,-1.35 1.05,-1.575 0.975,-1.575 1.35,-1.425 1.65,-0.975 1.575,-0.975 1.8,-0.6 1.725,-0.375 2.025,0 0,-2.025 -20.625,5.55 -0.825,0.225 -0.75,0 -0.6,-0.225 -0.825,-0.375 -3,-1.425 -0.6,1.2 -0.75,0.975 -1.8,1.8 -0.975,0.6 -0.975,0.825 -2.4,0.75 -0.975,0.45 -1.425,0.15 -1.2,0.225 -1.2,0 -1.2,-0.225 -1.125,-0.15 -1.425,-0.45 -1.2,-0.375"
         inkscape:connector-curvature="0" />
      <path
         id="path6722"
         style="fill:#ffd520;fill-opacity:1;fill-rule:evenodd;stroke:none"
         d="m -1085.6661,-363.98969 -0.825,10.35 -0.225,0.6 -0.15,0.15 -0.45,0.225 -0.375,0.225 -0.6,-0.225 -0.15,-0.225 -0.225,-0.375 -0.225,-0.6 0.975,-10.275 -1.35,0 -1.575,0.375 -1.2,0.6 -1.425,0.6 -1.125,0.75 -1.05,1.2 -0.75,0.975 -0.825,1.425 -0.75,1.95 0,1.05 -0.225,1.125 0.225,2.025 0.375,1.95 0.975,1.8 1.2,1.575 0.6,0.825 0.75,0.6 1.05,0.6 1.95,0.75 0.975,0.45 1.05,0.15 2.925,0 2.025,-0.6 0.975,-0.375 0.825,-0.375 0.975,-0.6 0.75,-0.6 0.6,-0.825 0.825,-0.75 0.375,-0.825 0.6,-0.975 0.6,-1.575 0.225,-1.425 0.15,-1.575 -0.15,-1.35 -0.225,-1.425 -0.6,-1.425 -0.6,-1.125 -0.75,-1.2 -1.2,-1.2 -1.575,-1.2 -1.65,-0.825 -1.725,-0.375"
         inkscape:connector-curvature="0" />
      <path
         id="path6724"
         style="fill:#ffd520;fill-opacity:1;fill-rule:evenodd;stroke:none"
         d="m -1087.4661,-371.33969 0.15,-0.6 -20.4,-9.45 -0.6,15.825 20.85,-5.775"
         inkscape:connector-curvature="0" />
      <path
         id="path6726"
         style="fill:#ffd520;fill-opacity:1;fill-rule:evenodd;stroke:none"
         d="m -1125.1911,-381.98969 -1.35,0 -1.575,0.375 -1.425,0.375 -1.35,0.6 -1.425,0.975 -0.975,1.05 -0.975,1.125 -0.825,1.65 -0.375,0.975 -0.45,0.975 -0.15,0.975 0,3 0.6,1.95 0.75,1.8 1.2,1.575 0.825,0.825 0.75,0.6 0.825,0.6 0.975,0.6 2.025,0.6 1.95,0.375 1.8,-0.225 1.95,-0.375 1.8,-0.825 1.575,-0.975 1.425,-1.35 0.975,-1.65 -9.75,-4.5 -0.375,-0.45 -0.225,-0.6 0,-0.6 0.45,-0.375 8.325,-5.925 -1.425,-1.2 -1.8,-0.975 -1.725,-0.6 -2.025,-0.375"
         inkscape:connector-curvature="0" />
      <path
         id="path6728"
         style="fill:#ffd520;fill-opacity:1;fill-rule:evenodd;stroke:none"
         d="m -1116.8661,-377.03969 -6.9,4.725 8.1,3.75 0.225,-0.975 0.15,-1.2 0,-2.175 -0.15,-0.975 -0.375,-1.2 -0.45,-0.975 -0.6,-0.975"
         inkscape:connector-curvature="0" />
      <path
         id="path6730"
         style="fill:#ffd520;fill-opacity:1;fill-rule:evenodd;stroke:none"
         d="m -1110.4911,-365.93969 0.6,-15.9 -4.8,3.225 0.825,1.35 0.6,1.2 0.375,1.35 0.225,1.65 0.225,1.35 -0.225,1.575 -0.225,1.425 -0.375,1.35 2.775,1.425"
         inkscape:connector-curvature="0" />
    </g>
    <path
       style="fill:#000000;fill-opacity:1;fill-rule:evenodd;stroke:#000000;stroke-width:0;stroke-linecap:butt;stroke-linejoin:miter;stroke-miterlimit:4.9000001;stroke-dasharray:none;stroke-opacity:1"
       d="m -994.74805,-356.65625 0,35.84766 c 5.7537,5.49285 35.40817,20.29097 54.41211,31.26171 l 0.19336,0 29.43164,-17.17578 z m -1.04297,35.09375 c 0.12576,0.0751 0.24888,0.15461 0.36914,0.23828 -0.0343,-0.0285 -0.0493,-0.0676 -0.0859,-0.0957 l -0.002,-0.004 c 0.68433,0.52408 0.63707,0.39111 -0.28125,-0.13867 z m 54.86914,32.48438 -0.084,0.043 c 0.0358,-0.0223 0.1791,-0.10628 -0.2168,0.11914 0.0988,-0.0567 0.19908,-0.11078 0.30078,-0.1621 z"
       id="path4425"
       inkscape:connector-curvature="0"
       sodipodi:nodetypes="ccccccccccccccccc" />
  </g>
</svg>
